<svg width="10" height="12" viewBox="0 0 10 12" fill="none" xmlns="http://www.w3.org/2000/svg">
<path d="M3.10417 5.0533C3.10417 4.00626 3.95296 3.15747 5 3.15747C6.04704 3.15747 6.89583 4.00626 6.89583 5.0533C6.89583 6.10034 6.04704 6.94914 5 6.94914C3.95296 6.94914 3.10417 6.10034 3.10417 5.0533Z" fill="white"/>
<path fill-rule="evenodd" clip-rule="evenodd" d="M0.201233 4.39845C0.401689 1.96656 2.4339 0.0949707 4.87403 0.0949707H5.126C7.56613 0.0949707 9.59834 1.96656 9.7988 4.39845C9.90672 5.7078 9.50228 7.00793 8.67064 8.02499L5.87469 11.4444C5.42262 11.9972 4.57741 11.9972 4.12534 11.4444L1.32939 8.02499C0.497755 7.00793 0.093306 5.7078 0.201233 4.39845ZM5 2.28247C3.46971 2.28247 2.22917 3.52302 2.22917 5.0533C2.22917 6.58359 3.46971 7.82414 5 7.82414C6.53029 7.82414 7.77083 6.58359 7.77083 5.0533C7.77083 3.52302 6.53029 2.28247 5 2.28247Z" fill="white"/>
</svg>
